<mxfile host="Electron" agent="Mozilla/5.0 (Windows NT 10.0; Win64; x64) AppleWebKit/537.36 (KHTML, like Gecko) draw.io/26.2.2 Chrome/134.0.6998.178 Electron/35.1.2 Safari/537.36" version="26.2.2">
  <diagram name="并行查询结构图" id="HKiY44Y33aAoRe27r5zN">
    <mxGraphModel dx="1030" dy="611" grid="1" gridSize="10" guides="1" tooltips="1" connect="1" arrows="1" fold="1" page="1" pageScale="1" pageWidth="827" pageHeight="1169" math="0" shadow="0">
      <root>
        <mxCell id="0" />
        <mxCell id="1" parent="0" />
        <mxCell id="X2DlYSLxe2rRx3k0Ldfk-1" value="&lt;b&gt;&lt;font style=&quot;font-size: 18px&quot;&gt;并行查询结构图&lt;/font&gt;&lt;/b&gt;" style="text;html=1;strokeColor=none;fillColor=none;align=center;verticalAlign=middle;whiteSpace=wrap;rounded=0;" vertex="1" parent="1">
          <mxGeometry x="275" y="40" width="300" height="30" as="geometry" />
        </mxCell>
        <mxCell id="X2DlYSLxe2rRx3k0Ldfk-2" value="&lt;font style=&quot;font-size: 14px;&quot;&gt;&lt;b&gt;输入&lt;/b&gt;&lt;/font&gt;" style="text;html=1;strokeColor=none;fillColor=none;align=center;verticalAlign=middle;whiteSpace=wrap;rounded=0;" vertex="1" parent="1">
          <mxGeometry x="80" y="90" width="100" height="30" as="geometry" />
        </mxCell>
        <mxCell id="X2DlYSLxe2rRx3k0Ldfk-3" value="问题相关概念节点列表" style="rounded=1;whiteSpace=wrap;html=1;fillColor=#d5e8d4;strokeColor=#82b366;fontSize=12;" vertex="1" parent="1">
          <mxGeometry x="50" y="130" width="160" height="40" as="geometry" />
        </mxCell>
        <mxCell id="X2DlYSLxe2rRx3k0Ldfk-4" value="&lt;font style=&quot;font-size: 14px;&quot;&gt;&lt;b&gt;异步并行查询处理&lt;/b&gt;&lt;/font&gt;" style="text;html=1;strokeColor=none;fillColor=none;align=center;verticalAlign=middle;whiteSpace=wrap;rounded=0;" vertex="1" parent="1">
          <mxGeometry x="450" y="190" width="200" height="30" as="geometry" />
        </mxCell>
        <mxCell id="X2DlYSLxe2rRx3k0Ldfk-5" value="&lt;b&gt;async function retrieve_knowledge_graph&lt;/b&gt;" style="rounded=1;whiteSpace=wrap;html=1;fillColor=#dae8fc;strokeColor=#6c8ebf;fontSize=12;" vertex="1" parent="1">
          <mxGeometry x="270" y="130" width="310" height="40" as="geometry" />
        </mxCell>
        <mxCell id="X2DlYSLxe2rRx3k0Ldfk-6" value="" style="endArrow=classic;html=1;rounded=0;exitX=1;exitY=0.5;exitDx=0;exitDy=0;entryX=0;entryY=0.5;entryDx=0;entryDy=0;" edge="1" parent="1" source="X2DlYSLxe2rRx3k0Ldfk-3" target="X2DlYSLxe2rRx3k0Ldfk-5">
          <mxGeometry width="50" height="50" relative="1" as="geometry">
            <mxPoint x="400" y="410" as="sourcePoint" />
            <mxPoint x="450" y="360" as="targetPoint" />
          </mxGeometry>
        </mxCell>
        <mxCell id="X2DlYSLxe2rRx3k0Ldfk-7" value="" style="rounded=1;whiteSpace=wrap;html=1;fillColor=#dae8fc;strokeColor=#6c8ebf;opacity=30;dashed=1;" vertex="1" parent="1">
          <mxGeometry x="20" y="230" width="820" height="320" as="geometry" />
        </mxCell>
        <mxCell id="X2DlYSLxe2rRx3k0Ldfk-8" value="&lt;b&gt;get_concept_nodes&lt;/b&gt;" style="rounded=1;whiteSpace=wrap;html=1;fillColor=#dae8fc;strokeColor=#6c8ebf;" vertex="1" parent="1">
          <mxGeometry x="80" y="260" width="160" height="40" as="geometry" />
        </mxCell>
        <mxCell id="X2DlYSLxe2rRx3k0Ldfk-9" value="&lt;b&gt;get_parent_nodes&lt;/b&gt;" style="rounded=1;whiteSpace=wrap;html=1;fillColor=#d5e8d4;strokeColor=#82b366;" vertex="1" parent="1">
          <mxGeometry x="80" y="320" width="160" height="40" as="geometry" />
        </mxCell>
        <mxCell id="X2DlYSLxe2rRx3k0Ldfk-10" value="&lt;b&gt;get_sibling_concepts&lt;/b&gt;" style="rounded=1;whiteSpace=wrap;html=1;fillColor=#ffe6cc;strokeColor=#d79b00;" vertex="1" parent="1">
          <mxGeometry x="80" y="380" width="160" height="40" as="geometry" />
        </mxCell>
        <mxCell id="X2DlYSLxe2rRx3k0Ldfk-11" value="&lt;b&gt;get_topic_nodes&lt;/b&gt;" style="rounded=1;whiteSpace=wrap;html=1;fillColor=#e1d5e7;strokeColor=#9673a6;" vertex="1" parent="1">
          <mxGeometry x="80" y="440" width="160" height="40" as="geometry" />
        </mxCell>
        <mxCell id="X2DlYSLxe2rRx3k0Ldfk-12" value="&lt;b&gt;get_video_nodes&lt;/b&gt;" style="rounded=1;whiteSpace=wrap;html=1;fillColor=#fff2cc;strokeColor=#d6b656;" vertex="1" parent="1">
          <mxGeometry x="80" y="500" width="160" height="40" as="geometry" />
        </mxCell>
        <mxCell id="X2DlYSLxe2rRx3k0Ldfk-13" value="&lt;span style=&quot;font-size: 14px;&quot;&gt;操作系统知识图谱&lt;/span&gt;" style="shape=cylinder3;whiteSpace=wrap;html=1;boundedLbl=1;backgroundOutline=1;size=15;fillColor=#b1ddf0;strokeColor=#10739e;" vertex="1" parent="1">
          <mxGeometry x="365" y="350" width="135" height="100" as="geometry" />
        </mxCell>
        <mxCell id="X2DlYSLxe2rRx3k0Ldfk-14" value="" style="endArrow=classic;html=1;rounded=0;exitX=1;exitY=0.5;exitDx=0;exitDy=0;entryX=0;entryY=0.25;entryDx=0;entryDy=0;" edge="1" parent="1" source="X2DlYSLxe2rRx3k0Ldfk-8" target="X2DlYSLxe2rRx3k0Ldfk-13">
          <mxGeometry width="50" height="50" relative="1" as="geometry">
            <mxPoint x="400" y="410" as="sourcePoint" />
            <mxPoint x="450" y="360" as="targetPoint" />
            <Array as="points">
              <mxPoint x="320" y="280" />
              <mxPoint x="320" y="375" />
            </Array>
          </mxGeometry>
        </mxCell>
        <mxCell id="X2DlYSLxe2rRx3k0Ldfk-15" value="" style="endArrow=classic;html=1;rounded=0;exitX=1;exitY=0.5;exitDx=0;exitDy=0;entryX=0;entryY=0.25;entryDx=0;entryDy=0;" edge="1" parent="1" source="X2DlYSLxe2rRx3k0Ldfk-9" target="X2DlYSLxe2rRx3k0Ldfk-13">
          <mxGeometry width="50" height="50" relative="1" as="geometry">
            <mxPoint x="250" y="290" as="sourcePoint" />
            <mxPoint x="365" y="370" as="targetPoint" />
            <Array as="points">
              <mxPoint x="320" y="340" />
              <mxPoint x="320" y="375" />
            </Array>
          </mxGeometry>
        </mxCell>
        <mxCell id="X2DlYSLxe2rRx3k0Ldfk-16" value="" style="endArrow=classic;html=1;rounded=0;exitX=1;exitY=0.5;exitDx=0;exitDy=0;entryX=0;entryY=0.5;entryDx=0;entryDy=0;" edge="1" parent="1" source="X2DlYSLxe2rRx3k0Ldfk-10" target="X2DlYSLxe2rRx3k0Ldfk-13">
          <mxGeometry width="50" height="50" relative="1" as="geometry">
            <mxPoint x="250" y="350" as="sourcePoint" />
            <mxPoint x="365" y="370" as="targetPoint" />
          </mxGeometry>
        </mxCell>
        <mxCell id="X2DlYSLxe2rRx3k0Ldfk-17" value="" style="endArrow=classic;html=1;rounded=0;exitX=1;exitY=0.5;exitDx=0;exitDy=0;entryX=0;entryY=0.75;entryDx=0;entryDy=0;" edge="1" parent="1" source="X2DlYSLxe2rRx3k0Ldfk-11" target="X2DlYSLxe2rRx3k0Ldfk-13">
          <mxGeometry width="50" height="50" relative="1" as="geometry">
            <mxPoint x="250" y="410" as="sourcePoint" />
            <mxPoint x="365" y="390" as="targetPoint" />
            <Array as="points">
              <mxPoint x="320" y="460" />
              <mxPoint x="320" y="425" />
            </Array>
          </mxGeometry>
        </mxCell>
        <mxCell id="X2DlYSLxe2rRx3k0Ldfk-18" value="" style="endArrow=classic;html=1;rounded=0;exitX=1;exitY=0.5;exitDx=0;exitDy=0;entryX=0;entryY=0.75;entryDx=0;entryDy=0;" edge="1" parent="1" source="X2DlYSLxe2rRx3k0Ldfk-12" target="X2DlYSLxe2rRx3k0Ldfk-13">
          <mxGeometry width="50" height="50" relative="1" as="geometry">
            <mxPoint x="250" y="470" as="sourcePoint" />
            <mxPoint x="365" y="410" as="targetPoint" />
            <Array as="points">
              <mxPoint x="320" y="520" />
              <mxPoint x="320" y="425" />
            </Array>
          </mxGeometry>
        </mxCell>
        <mxCell id="X2DlYSLxe2rRx3k0Ldfk-56" style="edgeStyle=orthogonalEdgeStyle;rounded=0;orthogonalLoop=1;jettySize=auto;html=1;exitX=1;exitY=0.5;exitDx=0;exitDy=0;entryX=1;entryY=0.25;entryDx=0;entryDy=0;" edge="1" parent="1" source="X2DlYSLxe2rRx3k0Ldfk-19" target="X2DlYSLxe2rRx3k0Ldfk-35">
          <mxGeometry relative="1" as="geometry" />
        </mxCell>
        <mxCell id="X2DlYSLxe2rRx3k0Ldfk-19" value="直接相关概念节点结果" style="rounded=1;whiteSpace=wrap;html=1;fillColor=#b1ddf0;strokeColor=#6c8ebf;" vertex="1" parent="1">
          <mxGeometry x="570" y="260" width="200" height="40" as="geometry" />
        </mxCell>
        <mxCell id="X2DlYSLxe2rRx3k0Ldfk-57" style="edgeStyle=orthogonalEdgeStyle;rounded=0;orthogonalLoop=1;jettySize=auto;html=1;exitX=1;exitY=0.5;exitDx=0;exitDy=0;" edge="1" parent="1" source="X2DlYSLxe2rRx3k0Ldfk-20">
          <mxGeometry relative="1" as="geometry">
            <mxPoint x="790" y="340" as="targetPoint" />
          </mxGeometry>
        </mxCell>
        <mxCell id="X2DlYSLxe2rRx3k0Ldfk-20" value="子章节节点结果" style="rounded=1;whiteSpace=wrap;html=1;fillColor=#b0e3bc;strokeColor=#82b366;" vertex="1" parent="1">
          <mxGeometry x="570" y="320" width="200" height="40" as="geometry" />
        </mxCell>
        <mxCell id="X2DlYSLxe2rRx3k0Ldfk-58" style="edgeStyle=orthogonalEdgeStyle;rounded=0;orthogonalLoop=1;jettySize=auto;html=1;exitX=1;exitY=0.5;exitDx=0;exitDy=0;" edge="1" parent="1" source="X2DlYSLxe2rRx3k0Ldfk-21">
          <mxGeometry relative="1" as="geometry">
            <mxPoint x="790" y="400" as="targetPoint" />
          </mxGeometry>
        </mxCell>
        <mxCell id="X2DlYSLxe2rRx3k0Ldfk-21" value="同级概念节点结果" style="rounded=1;whiteSpace=wrap;html=1;fillColor=#ffcc99;strokeColor=#d79b00;" vertex="1" parent="1">
          <mxGeometry x="570" y="380" width="200" height="40" as="geometry" />
        </mxCell>
        <mxCell id="X2DlYSLxe2rRx3k0Ldfk-59" style="edgeStyle=orthogonalEdgeStyle;rounded=0;orthogonalLoop=1;jettySize=auto;html=1;exitX=1;exitY=0.5;exitDx=0;exitDy=0;" edge="1" parent="1" source="X2DlYSLxe2rRx3k0Ldfk-22">
          <mxGeometry relative="1" as="geometry">
            <mxPoint x="790" y="460" as="targetPoint" />
          </mxGeometry>
        </mxCell>
        <mxCell id="X2DlYSLxe2rRx3k0Ldfk-22" value="题目节点结果" style="rounded=1;whiteSpace=wrap;html=1;fillColor=#d5b9d6;strokeColor=#9673a6;" vertex="1" parent="1">
          <mxGeometry x="570" y="440" width="200" height="40" as="geometry" />
        </mxCell>
        <mxCell id="X2DlYSLxe2rRx3k0Ldfk-60" style="edgeStyle=orthogonalEdgeStyle;rounded=0;orthogonalLoop=1;jettySize=auto;html=1;exitX=1;exitY=0.5;exitDx=0;exitDy=0;" edge="1" parent="1" source="X2DlYSLxe2rRx3k0Ldfk-23">
          <mxGeometry relative="1" as="geometry">
            <mxPoint x="790" y="520" as="targetPoint" />
          </mxGeometry>
        </mxCell>
        <mxCell id="X2DlYSLxe2rRx3k0Ldfk-23" value="视频节点结果" style="rounded=1;whiteSpace=wrap;html=1;fillColor=#ffea75;strokeColor=#d6b656;" vertex="1" parent="1">
          <mxGeometry x="570" y="500" width="200" height="40" as="geometry" />
        </mxCell>
        <mxCell id="X2DlYSLxe2rRx3k0Ldfk-24" value="" style="endArrow=classic;html=1;rounded=0;exitX=1;exitY=0.25;exitDx=0;exitDy=0;entryX=0;entryY=0.5;entryDx=0;entryDy=0;" edge="1" parent="1" source="X2DlYSLxe2rRx3k0Ldfk-13" target="X2DlYSLxe2rRx3k0Ldfk-19">
          <mxGeometry width="50" height="50" relative="1" as="geometry">
            <mxPoint x="400" y="410" as="sourcePoint" />
            <mxPoint x="450" y="360" as="targetPoint" />
            <Array as="points">
              <mxPoint x="520" y="375" />
              <mxPoint x="520" y="280" />
            </Array>
          </mxGeometry>
        </mxCell>
        <mxCell id="X2DlYSLxe2rRx3k0Ldfk-25" value="" style="endArrow=classic;html=1;rounded=0;exitX=1;exitY=0.25;exitDx=0;exitDy=0;entryX=0;entryY=0.5;entryDx=0;entryDy=0;" edge="1" parent="1" source="X2DlYSLxe2rRx3k0Ldfk-13" target="X2DlYSLxe2rRx3k0Ldfk-20">
          <mxGeometry width="50" height="50" relative="1" as="geometry">
            <mxPoint x="485" y="370" as="sourcePoint" />
            <mxPoint x="570" y="280" as="targetPoint" />
            <Array as="points">
              <mxPoint x="520" y="375" />
              <mxPoint x="520" y="340" />
            </Array>
          </mxGeometry>
        </mxCell>
        <mxCell id="X2DlYSLxe2rRx3k0Ldfk-26" value="" style="endArrow=classic;html=1;rounded=0;exitX=1;exitY=0.5;exitDx=0;exitDy=0;entryX=0;entryY=0.5;entryDx=0;entryDy=0;" edge="1" parent="1" source="X2DlYSLxe2rRx3k0Ldfk-13" target="X2DlYSLxe2rRx3k0Ldfk-21">
          <mxGeometry width="50" height="50" relative="1" as="geometry">
            <mxPoint x="485" y="370" as="sourcePoint" />
            <mxPoint x="570" y="340" as="targetPoint" />
          </mxGeometry>
        </mxCell>
        <mxCell id="X2DlYSLxe2rRx3k0Ldfk-27" value="" style="endArrow=classic;html=1;rounded=0;exitX=1;exitY=0.75;exitDx=0;exitDy=0;entryX=0;entryY=0.5;entryDx=0;entryDy=0;" edge="1" parent="1" source="X2DlYSLxe2rRx3k0Ldfk-13" target="X2DlYSLxe2rRx3k0Ldfk-22">
          <mxGeometry width="50" height="50" relative="1" as="geometry">
            <mxPoint x="485" y="390" as="sourcePoint" />
            <mxPoint x="570" y="400" as="targetPoint" />
            <Array as="points">
              <mxPoint x="520" y="425" />
              <mxPoint x="520" y="460" />
            </Array>
          </mxGeometry>
        </mxCell>
        <mxCell id="X2DlYSLxe2rRx3k0Ldfk-28" value="" style="endArrow=classic;html=1;rounded=0;exitX=1;exitY=0.75;exitDx=0;exitDy=0;entryX=0;entryY=0.5;entryDx=0;entryDy=0;" edge="1" parent="1" source="X2DlYSLxe2rRx3k0Ldfk-13" target="X2DlYSLxe2rRx3k0Ldfk-23">
          <mxGeometry width="50" height="50" relative="1" as="geometry">
            <mxPoint x="485" y="410" as="sourcePoint" />
            <mxPoint x="570" y="460" as="targetPoint" />
            <Array as="points">
              <mxPoint x="520" y="425" />
              <mxPoint x="520" y="520" />
            </Array>
          </mxGeometry>
        </mxCell>
        <mxCell id="X2DlYSLxe2rRx3k0Ldfk-29" value="" style="endArrow=classic;html=1;rounded=0;exitX=0.5;exitY=1;exitDx=0;exitDy=0;entryX=0.5;entryY=0;entryDx=0;entryDy=0;" edge="1" parent="1" source="X2DlYSLxe2rRx3k0Ldfk-5" target="X2DlYSLxe2rRx3k0Ldfk-8">
          <mxGeometry width="50" height="50" relative="1" as="geometry">
            <mxPoint x="400" y="410" as="sourcePoint" />
            <mxPoint x="450" y="360" as="targetPoint" />
            <Array as="points">
              <mxPoint x="425" y="200" />
              <mxPoint x="160" y="200" />
            </Array>
          </mxGeometry>
        </mxCell>
        <mxCell id="X2DlYSLxe2rRx3k0Ldfk-30" value="" style="endArrow=classic;html=1;rounded=0;entryX=0.5;entryY=0;entryDx=0;entryDy=0;" edge="1" parent="1" target="X2DlYSLxe2rRx3k0Ldfk-9">
          <mxGeometry width="50" height="50" relative="1" as="geometry">
            <mxPoint x="160" y="300" as="sourcePoint" />
            <mxPoint x="450" y="360" as="targetPoint" />
          </mxGeometry>
        </mxCell>
        <mxCell id="X2DlYSLxe2rRx3k0Ldfk-31" value="" style="endArrow=classic;html=1;rounded=0;entryX=0.5;entryY=0;entryDx=0;entryDy=0;" edge="1" parent="1" target="X2DlYSLxe2rRx3k0Ldfk-10">
          <mxGeometry width="50" height="50" relative="1" as="geometry">
            <mxPoint x="160" y="360" as="sourcePoint" />
            <mxPoint x="450" y="360" as="targetPoint" />
          </mxGeometry>
        </mxCell>
        <mxCell id="X2DlYSLxe2rRx3k0Ldfk-32" value="" style="endArrow=classic;html=1;rounded=0;entryX=0.5;entryY=0;entryDx=0;entryDy=0;" edge="1" parent="1" target="X2DlYSLxe2rRx3k0Ldfk-11">
          <mxGeometry width="50" height="50" relative="1" as="geometry">
            <mxPoint x="160" y="420" as="sourcePoint" />
            <mxPoint x="450" y="360" as="targetPoint" />
          </mxGeometry>
        </mxCell>
        <mxCell id="X2DlYSLxe2rRx3k0Ldfk-33" value="" style="endArrow=classic;html=1;rounded=0;entryX=0.5;entryY=0;entryDx=0;entryDy=0;" edge="1" parent="1" target="X2DlYSLxe2rRx3k0Ldfk-12">
          <mxGeometry width="50" height="50" relative="1" as="geometry">
            <mxPoint x="160" y="480" as="sourcePoint" />
            <mxPoint x="450" y="360" as="targetPoint" />
          </mxGeometry>
        </mxCell>
        <mxCell id="X2DlYSLxe2rRx3k0Ldfk-35" value="&lt;font style=&quot;font-size: 14px;&quot;&gt;&lt;b&gt;异步结果汇总&lt;/b&gt;&lt;/font&gt;" style="rounded=1;whiteSpace=wrap;html=1;fillColor=#f8cecc;strokeColor=#b85450;" vertex="1" parent="1">
          <mxGeometry x="297.5" y="600" width="255" height="40" as="geometry" />
        </mxCell>
        <mxCell id="X2DlYSLxe2rRx3k0Ldfk-41" value="&lt;font style=&quot;font-size: 14px;&quot;&gt;&lt;b&gt;输出&lt;/b&gt;&lt;/font&gt;" style="text;html=1;strokeColor=none;fillColor=none;align=center;verticalAlign=middle;whiteSpace=wrap;rounded=0;" vertex="1" parent="1">
          <mxGeometry x="375" y="660" width="100" height="30" as="geometry" />
        </mxCell>
        <mxCell id="X2DlYSLxe2rRx3k0Ldfk-42" value="&lt;font style=&quot;font-size: 18px;&quot;&gt;完整知识图谱结构 {nodes, links}以及相关语料&lt;/font&gt;" style="shape=document;whiteSpace=wrap;html=1;boundedLbl=1;fillColor=#e1d5e7;strokeColor=#9673a6;" vertex="1" parent="1">
          <mxGeometry x="307.5" y="700" width="235" height="80" as="geometry" />
        </mxCell>
        <mxCell id="X2DlYSLxe2rRx3k0Ldfk-43" value="" style="endArrow=classic;html=1;rounded=0;exitX=0.5;exitY=1;exitDx=0;exitDy=0;entryX=0.5;entryY=0;entryDx=0;entryDy=0;" edge="1" parent="1" source="X2DlYSLxe2rRx3k0Ldfk-35" target="X2DlYSLxe2rRx3k0Ldfk-42">
          <mxGeometry width="50" height="50" relative="1" as="geometry">
            <mxPoint x="400" y="500" as="sourcePoint" />
            <mxPoint x="450" y="450" as="targetPoint" />
          </mxGeometry>
        </mxCell>
        <mxCell id="X2DlYSLxe2rRx3k0Ldfk-45" value="&lt;font style=&quot;font-size: 18px;&quot;&gt;异步并行查询任务&lt;/font&gt;" style="text;html=1;strokeColor=none;fillColor=none;align=left;verticalAlign=middle;whiteSpace=wrap;rounded=0;fontStyle=2" vertex="1" parent="1">
          <mxGeometry x="340" y="250" width="170" height="30" as="geometry" />
        </mxCell>
        <mxCell id="X2DlYSLxe2rRx3k0Ldfk-46" value="图例：" style="text;html=1;strokeColor=none;fillColor=none;align=left;verticalAlign=middle;whiteSpace=wrap;rounded=0;fontStyle=1" vertex="1" parent="1">
          <mxGeometry x="620" y="630" width="60" height="30" as="geometry" />
        </mxCell>
        <mxCell id="X2DlYSLxe2rRx3k0Ldfk-47" value="查询任务" style="rounded=1;whiteSpace=wrap;html=1;fillColor=#dae8fc;strokeColor=#6c8ebf;" vertex="1" parent="1">
          <mxGeometry x="610" y="660" width="80" height="30" as="geometry" />
        </mxCell>
        <mxCell id="X2DlYSLxe2rRx3k0Ldfk-48" value="数据库" style="shape=cylinder3;whiteSpace=wrap;html=1;boundedLbl=1;backgroundOutline=1;size=15;fillColor=#f5f5f5;strokeColor=#666666;fontColor=#333333;" vertex="1" parent="1">
          <mxGeometry x="700" y="660" width="60" height="50" as="geometry" />
        </mxCell>
        <mxCell id="X2DlYSLxe2rRx3k0Ldfk-49" value="结果处理" style="rounded=1;whiteSpace=wrap;html=1;fillColor=#f8cecc;strokeColor=#b85450;" vertex="1" parent="1">
          <mxGeometry x="610" y="700" width="80" height="30" as="geometry" />
        </mxCell>
        <mxCell id="X2DlYSLxe2rRx3k0Ldfk-50" value="输出" style="shape=document;whiteSpace=wrap;html=1;boundedLbl=1;fillColor=#e1d5e7;strokeColor=#9673a6;" vertex="1" parent="1">
          <mxGeometry x="700" y="720" width="60" height="40" as="geometry" />
        </mxCell>
        <mxCell id="X2DlYSLxe2rRx3k0Ldfk-51" value="输入数据" style="rounded=1;whiteSpace=wrap;html=1;fillColor=#d5e8d4;strokeColor=#82b366;" vertex="1" parent="1">
          <mxGeometry x="610" y="740" width="80" height="30" as="geometry" />
        </mxCell>
      </root>
    </mxGraphModel>
  </diagram>
</mxfile>
